<svg width="73" height="30" viewBox="0 0 73 30" fill="none" xmlns="http://www.w3.org/2000/svg">
<rect width="73" height="30" rx="4" fill="#FEE500"/>
<g clip-path="url(#clip0_93_1455)">
<path fill-rule="evenodd" clip-rule="evenodd" d="M15 9.3999C11.6861 9.3999 9 11.4752 9 14.0348C9 15.6266 10.0389 17.0299 11.621 17.8645L10.9554 20.2962C10.8965 20.5111 11.1423 20.6824 11.331 20.5579L14.2489 18.632C14.4951 18.6558 14.7454 18.6697 15 18.6697C18.3136 18.6697 21 16.5944 21 14.0348C21 11.4752 18.3136 9.3999 15 9.3999" fill="black"/>
</g>
<path d="M37.598 15.79H33.748V17.876H38.69V19.024H27.42V17.876H32.32V15.79H28.862V11.758H35.806V10.148H28.82V9H37.234V12.92H30.304V14.628H37.598V15.79ZM50.8033 18.786H39.5333V17.624H50.8033V18.786ZM49.3333 9.476C49.3333 12.78 49.1233 15.118 48.7873 16.756L47.3733 16.574C47.6813 15.328 47.8913 12.626 47.8913 10.61H40.8353V9.476H49.3333ZM61.9086 17.176H60.4806V8.132H61.9086V17.176ZM62.2026 20.242H53.6626V16.322H55.0906V19.094H62.2026V20.242ZM58.4086 12.108C58.4086 13.886 57.1206 15.16 55.2166 15.16C53.3126 15.16 51.9966 13.886 51.9966 12.122C51.9966 10.344 53.2986 9.056 55.2166 9.056C57.1206 9.056 58.4086 10.33 58.4086 12.108ZM56.9806 12.108C56.9806 11.016 56.3086 10.246 55.2166 10.246C54.1526 10.246 53.4386 11.044 53.4386 12.108C53.4386 13.13 54.1526 13.942 55.2166 13.942C56.3086 13.942 56.9806 13.13 56.9806 12.108Z" fill="black" fill-opacity="0.85"/>
<defs>
<clipPath id="clip0_93_1455">
<rect width="12" height="12" fill="white" transform="translate(9 9)"/>
</clipPath>
</defs>
</svg>
