<svg width="24" height="24" viewBox="0 0 24 24" fill="none" xmlns="http://www.w3.org/2000/svg">
<path fill-rule="evenodd" clip-rule="evenodd" d="M5.26321 6.31579H8.84206V9.96842C8.84206 10.7416 9.46886 11.3684 10.2421 11.3684L22.1052 11.3684C23.1516 11.3684 24 10.5201 24 9.47369C24 4.24152 19.7584 0 14.5263 0H13.758H10.22H1.05269C0.471334 0 5.52925e-05 0.471278 5.52671e-05 1.05263C5.514e-05 3.95939 2.35645 6.31579 5.26321 6.31579Z" fill="#F88125" fill-opacity="0.4"/>
<path d="M8.8418 5.26316C8.8418 2.3564 11.1982 0 14.105 0C14.6863 0 15.1576 0.471279 15.1576 1.05263V18.7368C15.1576 21.6436 12.8012 24 9.89443 24C9.31308 24 8.8418 23.5287 8.8418 22.9474V5.26316Z" fill="#F88125"/>
</svg>
