<svg width="20" height="20" viewBox="0 0 20 20" fill="none" xmlns="http://www.w3.org/2000/svg">
<path d="M10.0001 12.4584C9.88903 12.4584 9.78139 12.4376 9.67722 12.3959C9.57305 12.3542 9.47236 12.2848 9.37514 12.1876L5.6043 8.41673C5.43764 8.25006 5.36125 8.04173 5.37514 7.79173C5.38903 7.54173 5.47236 7.34034 5.62514 7.18756C5.80569 7.007 6.01403 6.9202 6.25014 6.92714C6.48625 6.93409 6.68764 7.02089 6.8543 7.18756L10.0001 10.3542L13.1668 7.18756C13.3335 7.02089 13.5314 6.93756 13.7606 6.93756C13.9897 6.93756 14.1946 7.02784 14.3751 7.20839C14.5418 7.37506 14.6251 7.57992 14.6251 7.82298C14.6251 8.06603 14.5418 8.27089 14.3751 8.43756L10.6251 12.1876C10.5279 12.2848 10.4272 12.3542 10.3231 12.3959C10.2189 12.4376 10.1112 12.4584 10.0001 12.4584Z" fill="white"/>
</svg>
