<svg width="20" height="20" viewBox="0 0 20 20" fill="none" xmlns="http://www.w3.org/2000/svg">
<g id="Expand More">
<path id="Vector" d="M9.99989 12.4584C9.88878 12.4584 9.78114 12.4376 9.67698 12.3959C9.57281 12.3542 9.47212 12.2848 9.37489 12.1876L5.60406 8.41673C5.43739 8.25006 5.361 8.04173 5.37489 7.79173C5.38878 7.54173 5.47212 7.34034 5.62489 7.18756C5.80545 7.007 6.01378 6.9202 6.24989 6.92714C6.486 6.93409 6.68739 7.02089 6.85406 7.18756L9.99989 10.3542L13.1666 7.18756C13.3332 7.02089 13.5311 6.93756 13.7603 6.93756C13.9895 6.93756 14.1943 7.02784 14.3749 7.20839C14.5416 7.37506 14.6249 7.57992 14.6249 7.82298C14.6249 8.06603 14.5416 8.27089 14.3749 8.43756L10.6249 12.1876C10.5277 12.2848 10.427 12.3542 10.3228 12.3959C10.2186 12.4376 10.111 12.4584 9.99989 12.4584Z" fill="#9EA4AA"/>
</g>
</svg>
